<?xml version="1.0" encoding="UTF-8"?>
<svg version="1.1" xmlns="http://www.w3.org/2000/svg" width="614" height="141">
<path d="M0 0 C1.175625 0.2475 1.175625 0.2475 2.375 0.5 C2.375 1.16 2.375 1.82 2.375 2.5 C3.344375 2.768125 4.31375 3.03625 5.3125 3.3125 C6.323125 3.704375 7.33375 4.09625 8.375 4.5 C8.705 5.49 9.035 6.48 9.375 7.5 C10.055625 7.149375 10.73625 6.79875 11.4375 6.4375 C16.86819217 4.70430037 21.29580306 6.46832122 26.375 8.5 C28.70097511 8.8813074 31.03412158 9.22460254 33.375 9.5 C33.375 8.18 33.375 6.86 33.375 5.5 C35.25 5.1875 37.125 4.875 39 4.5625 C40.04414063 4.38847656 41.08828125 4.21445312 42.1640625 4.03515625 C43.22367188 3.85855469 44.28328125 3.68195312 45.375 3.5 C46.39851562 3.28472656 47.42203125 3.06945312 48.4765625 2.84765625 C51.56312388 2.47743528 53.24410892 2.79218232 56.125 3.875 C56.88296875 4.15085937 57.6409375 4.42671875 58.421875 4.7109375 C60.375 5.5 60.375 5.5 62.375 6.5 C62.78229228 8.82156597 63.11938677 11.1568787 63.375 13.5 C64.06464844 13.01917969 64.75429687 12.53835937 65.46484375 12.04296875 C68.80763417 10.27061678 71.17742758 10.00856403 74.9375 9.8125 C76.61005859 9.71388672 76.61005859 9.71388672 78.31640625 9.61328125 C80.66796151 9.52618661 83.02183243 9.5 85.375 9.5 C85.705 8.18 86.035 6.86 86.375 5.5 C101.99293826 4.95093186 101.99293826 4.95093186 109.375 8.5 C112.1404593 9.72414816 112.1404593 9.72414816 114.0625 9.0625 C117.99651474 8.1055775 122.70616789 7.66558394 126.375 9.5 C126.375 10.16 126.375 10.82 126.375 11.5 C125.715 11.5 125.055 11.5 124.375 11.5 C124.375 12.16 124.375 12.82 124.375 13.5 C125.32761719 13.46519531 126.28023437 13.43039063 127.26171875 13.39453125 C128.51597656 13.36746094 129.77023437 13.34039062 131.0625 13.3125 C132.30386719 13.27769531 133.54523438 13.24289063 134.82421875 13.20703125 C138.56064321 13.5153171 140.38129483 14.31911727 143.375 16.5 C143.045 17.49 142.715 18.48 142.375 19.5 C141.385 19.5 140.395 19.5 139.375 19.5 C139.705 20.49 140.035 21.48 140.375 22.5 C141.4475 22.005 142.52 21.51 143.625 21 C146.62916808 19.61346089 147.83434895 19.5 151.375 19.5 C151.375 20.82 151.375 22.14 151.375 23.5 C152.20644531 23.39300781 153.03789062 23.28601563 153.89453125 23.17578125 C154.98121094 23.05589844 156.06789063 22.93601562 157.1875 22.8125 C158.26644531 22.68488281 159.34539062 22.55726562 160.45703125 22.42578125 C163.375 22.5 163.375 22.5 165.26171875 23.98046875 C165.62910156 24.48191406 165.99648438 24.98335937 166.375 25.5 C165.715 26.16 165.055 26.82 164.375 27.5 C169.72208004 28.64642796 174.76382453 28.55148197 180.1875 28.3125 C181.03892578 28.29380859 181.89035156 28.27511719 182.76757812 28.25585938 C188.33436057 28.01419403 192.50813355 26.89552425 197.47143555 24.34643555 C199.375 23.5 199.375 23.5 202.375 23.5 C202.705 22.51 203.035 21.52 203.375 20.5 C204.365 20.17 205.355 19.84 206.375 19.5 C205.715 19.17 205.055 18.84 204.375 18.5 C204.375 17.51 204.375 16.52 204.375 15.5 C208.59975803 14.09174732 212.83435809 13.78044498 217.25 13.3125 C218.14847656 13.20486328 219.04695313 13.09722656 219.97265625 12.98632812 C224.83815803 12.47246789 227.86176351 12.44446655 232.375 14.5 C235.06111721 14.72104506 237.68624245 14.86598086 240.375 14.9375 C247.03404367 15.19372748 253.0301017 16.14284892 259.4453125 18.07421875 C263.24656556 18.62666753 265.7181194 17.65420294 269.375 16.5 C272.65115465 15.85268113 275.94684628 15.36324897 279.25 14.875 C280.09691406 14.7409375 280.94382812 14.606875 281.81640625 14.46875 C296.62828216 12.24583447 296.62828216 12.24583447 302.375 15.5 C302.375 14.84 302.375 14.18 302.375 13.5 C304.355 13.17 306.335 12.84 308.375 12.5 C308.375 13.82 308.375 15.14 308.375 16.5 C311.84613322 19.25648815 314.98473346 20.2560963 319.375 20.5 C322.16184537 20.07838951 324.91010088 19.54263315 327.671875 18.98046875 C330.99333964 18.39009281 334.01367635 18.35060784 337.375 18.5 C338.035 19.82 338.695 21.14 339.375 22.5 C342.97102643 22.10606474 342.97102643 22.10606474 345.73266602 19.99121094 C347.9457527 17.98176639 349.38172653 18.06247438 352.33984375 17.953125 C353.30470703 17.91316406 354.26957031 17.87320313 355.26367188 17.83203125 C356.7728418 17.79142578 356.7728418 17.79142578 358.3125 17.75 C359.31474609 17.70746094 360.31699219 17.66492188 361.34960938 17.62109375 C369.4462553 17.32942005 369.4462553 17.32942005 373.375 18.5 C374.035 17.51 374.695 16.52 375.375 15.5 C378.5 15.3125 378.5 15.3125 381.375 15.5 C381.8390625 16.7065625 381.8390625 16.7065625 382.3125 17.9375 C383.13835345 20.39080405 383.13835345 20.39080405 384.375 21.5 C389.12791649 22.01662136 392.30561686 21.26651746 396.75 19.5 C401.7363564 17.57532123 406.05172626 16.57189416 411.375 17.5 C414.4375 19 414.4375 19 416.375 20.5 C416.045 19.51 415.715 18.52 415.375 17.5 C414.385 17.17 413.395 16.84 412.375 16.5 C412.705 15.18 413.035 13.86 413.375 12.5 C415.49993141 12.47306425 417.62495912 12.45363372 419.75 12.4375 C420.93335938 12.42589844 422.11671875 12.41429687 423.3359375 12.40234375 C426.375 12.5 426.375 12.5 428.375 13.5 C428.375 15.81 428.375 18.12 428.375 20.5 C431.345 22.15 434.315 23.8 437.375 25.5 C437.375 26.82 437.375 28.14 437.375 29.5 C439.12603957 31.00400397 439.12603957 31.00400397 441.375 32.125 C443.625 33.3515625 443.625 33.3515625 445.375 34.5 C445.375 35.16 445.375 35.82 445.375 36.5 C446.365 36.5 447.355 36.5 448.375 36.5 C448.375 49.04 448.375 61.58 448.375 74.5 C440.4999931 75.62500099 440.4999931 75.62500099 436.90320075 75.62534916 C436.08214545 75.62785268 435.26109016 75.6303562 434.4151544 75.63293558 C433.5321872 75.63059442 432.64922001 75.62825325 431.73949623 75.62584114 C430.78285291 75.62729458 429.82620958 75.62874802 428.84057707 75.63024551 C425.62845345 75.63390084 422.41637743 75.63042122 419.20425415 75.62698364 C416.8807874 75.62813563 414.55732084 75.62972368 412.23385465 75.63171089 C406.51401216 75.63545469 400.7941836 75.63453798 395.07434092 75.63166012 C388.22269036 75.62847184 381.37104513 75.63108507 374.51939484 75.63387203 C361.09669249 75.6391386 347.6739949 75.63868116 334.2512921 75.63579312 C322.50869755 75.63327891 310.76610475 75.63262025 299.02350998 75.63381577 C298.24500939 75.63389215 297.4665088 75.63396854 296.66441729 75.63404724 C293.50440336 75.63435856 290.34438943 75.63467696 287.1843755 75.635007 C257.53964424 75.63806629 227.89491602 75.63529175 198.25018523 75.6299101 C171.89286275 75.62516166 145.5355451 75.62559144 119.17822266 75.63037109 C89.57912 75.63572065 59.98002002 75.63785214 30.38091695 75.63475883 C27.22847645 75.6344381 24.07603594 75.63412526 20.92359543 75.63381577 C20.14735778 75.63373669 19.37112014 75.63365761 18.57136014 75.63357614 C6.82986665 75.63243684 -4.91162491 75.63377227 -16.65311813 75.63629532 C-29.99391871 75.63914771 -43.33471378 75.63845433 -56.67551367 75.63301457 C-63.48868571 75.63032843 -70.30184878 75.62924609 -77.11502075 75.63266373 C-83.34085691 75.63562399 -89.56667403 75.63403844 -95.79250844 75.62868617 C-98.05542432 75.62756086 -100.31834179 75.62815567 -102.58125667 75.63056196 C-105.63570899 75.63356306 -108.69009438 75.6305245 -111.74454308 75.62584114 C-112.64155727 75.62818231 -113.53857146 75.63052347 -114.4627679 75.63293558 C-120.51084958 75.61415042 -120.51084958 75.61415042 -121.625 74.5 C-121.71368299 71.54294679 -121.74020296 68.60934944 -121.72265625 65.65234375 C-121.7212413 64.7659169 -121.71982635 63.87949005 -121.71836853 62.96620178 C-121.71275215 60.12326746 -121.70019691 57.28041069 -121.6875 54.4375 C-121.68248711 52.51497509 -121.67792384 50.59244896 -121.67382812 48.66992188 C-121.66277741 43.94658451 -121.64550183 39.22330542 -121.625 34.5 C-120.305 33.84 -118.985 33.18 -117.625 32.5 C-117.625 31.51 -117.625 30.52 -117.625 29.5 C-113.11357645 27.34353954 -108.78268901 26.90625767 -103.875 26.4375 C-103.11445312 26.35951172 -102.35390625 26.28152344 -101.5703125 26.20117188 C-100.03867564 26.0441142 -98.50677182 25.88963771 -96.97460938 25.73779297 C-93.18807803 25.35457585 -89.40697191 24.92566019 -85.625 24.5 C-85.625 27.5 -85.625 27.5 -86.625 29.5 C-84.975 29.83 -83.325 30.16 -81.625 30.5 C-82.615 31.49 -83.605 32.48 -84.625 33.5 C-79.675 33.83 -74.725 34.16 -69.625 34.5 C-70.615 34.17 -71.605 33.84 -72.625 33.5 C-72.295 32.18 -71.965 30.86 -71.625 29.5 C-68.47060002 28.49413266 -65.48489354 28.4166643 -62.19238281 28.36181641 C-52.64022209 28.13395428 -45.1000889 25.79207862 -37.4375 19.78515625 C-35.625 18.5 -35.625 18.5 -33.375 18.8125 C-32.7975 19.039375 -32.22 19.26625 -31.625 19.5 C-31.625 20.82 -31.625 22.14 -31.625 23.5 C-31.0475 23.29375 -30.47 23.0875 -29.875 22.875 C-27.625 22.5 -27.625 22.5 -25.9375 23.40625 C-22.80299891 24.8887843 -19.80554768 25.18029938 -16.375 25.625 C-15.11171875 25.79257812 -13.8484375 25.96015625 -12.546875 26.1328125 C-11.58265625 26.25398438 -10.6184375 26.37515625 -9.625 26.5 C-10.615 25.015 -10.615 25.015 -11.625 23.5 C-10.696875 23.108125 -9.76875 22.71625 -8.8125 22.3125 C-5.39949882 20.37177384 -4.31301596 18.96981059 -2.625 15.5 C-3.594375 15.355625 -4.56375 15.21125 -5.5625 15.0625 C-8.625 14.5 -8.625 14.5 -9.625 13.5 C-10.718125 13.396875 -11.81125 13.29375 -12.9375 13.1875 C-16.94441902 12.4404473 -18.12238139 11.60324707 -20.625 8.5 C-20.295 7.51 -19.965 6.52 -19.625 5.5 C-18.965 5.5 -18.305 5.5 -17.625 5.5 C-17.625 4.84 -17.625 4.18 -17.625 3.5 C-13.60556208 -2.7118586 -6.41779242 -0.88521275 0 0 Z " fill="#FCFCFC" transform="translate(137.625,23.5)"/>
<path d="M0 0 C2.12493141 -0.02693575 4.24995912 -0.04636628 6.375 -0.0625 C7.55835938 -0.07410156 8.74171875 -0.08570313 9.9609375 -0.09765625 C13 0 13 0 15 1 C15 3.31 15 5.62 15 8 C17.97 9.65 20.94 11.3 24 13 C24 14.32 24 15.64 24 17 C25.75103957 18.50400397 25.75103957 18.50400397 28 19.625 C30.25 20.8515625 30.25 20.8515625 32 22 C32 22.66 32 23.32 32 24 C32.99 24 33.98 24 35 24 C35 36.54 35 49.08 35 62 C27.1249931 63.12500099 27.1249931 63.12500099 23.52820075 63.12534916 C22.70714545 63.12785268 21.88609016 63.1303562 21.0401544 63.13293558 C20.1571872 63.13059442 19.27422001 63.12825325 18.36449623 63.12584114 C17.40785291 63.12729458 16.45120958 63.12874802 15.46557707 63.13024551 C12.25345345 63.13390084 9.04137743 63.13042122 5.82925415 63.12698364 C3.5057874 63.12813563 1.18232084 63.12972368 -1.14114535 63.13171089 C-6.86098784 63.13545469 -12.5808164 63.13453798 -18.30065908 63.13166012 C-25.15230964 63.12847184 -32.00395487 63.13108507 -38.85560516 63.13387203 C-52.27830751 63.1391386 -65.7010051 63.13868116 -79.1237079 63.13579312 C-90.86630245 63.13327891 -102.60889525 63.13262025 -114.35149002 63.13381577 C-115.12999061 63.13389215 -115.9084912 63.13396854 -116.71058271 63.13404724 C-119.87059664 63.13435856 -123.03061057 63.13467696 -126.1906245 63.135007 C-155.83535576 63.13806629 -185.48008398 63.13529175 -215.12481477 63.1299101 C-241.48213725 63.12516166 -267.8394549 63.12559144 -294.19677734 63.13037109 C-323.79588 63.13572065 -353.39497998 63.13785214 -382.99408305 63.13475883 C-386.14652355 63.1344381 -389.29896406 63.13412526 -392.45140457 63.13381577 C-393.22764222 63.13373669 -394.00387986 63.13365761 -394.80363986 63.13357614 C-406.54513335 63.13243684 -418.28662491 63.13377227 -430.02811813 63.13629532 C-443.36891871 63.13914771 -456.70971378 63.13845433 -470.05051367 63.13301457 C-476.86368571 63.13032843 -483.67684878 63.12924609 -490.49002075 63.13266373 C-496.71585691 63.13562399 -502.94167403 63.13403844 -509.16750844 63.12868617 C-511.43042432 63.12756086 -513.69334179 63.12815567 -515.95625667 63.13056196 C-519.01070899 63.13356306 -522.06509438 63.1305245 -525.11954308 63.12584114 C-526.01655727 63.12818231 -526.91357146 63.13052347 -527.8377679 63.13293558 C-533.88584958 63.11415042 -533.88584958 63.11415042 -535 62 C-535.08868299 59.04294679 -535.11520296 56.10934944 -535.09765625 53.15234375 C-535.0962413 52.2659169 -535.09482635 51.37949005 -535.09336853 50.46620178 C-535.08775215 47.62326746 -535.07519691 44.78041069 -535.0625 41.9375 C-535.05748711 40.01497509 -535.05292384 38.09244896 -535.04882812 36.16992188 C-535.03777741 31.44658451 -535.02050183 26.72330542 -535 22 C-533.35 21.67 -531.7 21.34 -530 21 C-530.99 21.33 -531.98 21.66 -533 22 C-533 34.87 -533 47.74 -533 61 C-346.22 61 -159.44 61 33 61 C32.67 49.45 32.34 37.9 32 26 C30.68 26.33 29.36 26.66 28 27 C27.34 26.01 26.68 25.02 26 24 C27.32 24 28.64 24 30 24 C30 23.34 30 22.68 30 22 C29.01 22 28.02 22 27 22 C27 21.34 27 20.68 27 20 C26.01 20.99 25.02 21.98 24 23 C23.1028125 22.5359375 23.1028125 22.5359375 22.1875 22.0625 C19.91043228 20.89790296 19.91043228 20.89790296 17 20 C17 19.01 17 18.02 17 17 C18.32 17 19.64 17 21 17 C21.33 15.68 21.66 14.36 22 13 C19.69 12.67 17.38 12.34 15 12 C15 11.34 15 10.68 15 10 C13.515 10.495 13.515 10.495 12 11 C12.33 8.03 12.66 5.06 13 2 C10.03 2 7.06 2 4 2 C3.67 2.66 3.34 3.32 3 4 C3.66 4 4.32 4 5 4 C4.67 5.65 4.34 7.3 4 9 C1.69 9.33 -0.62 9.66 -3 10 C-3 8.68 -3 7.36 -3 6 C-5.64 6 -8.28 6 -11 6 C-11 5.67 -11 5.34 -11 5 C-5.49633208 4.67625483 -1.56327794 4.46713966 3 8 C2.67 7.01 2.34 6.02 2 5 C1.01 4.67 0.02 4.34 -1 4 C-0.67 2.68 -0.34 1.36 0 0 Z " fill="#403F3F" transform="translate(551,36)"/>
<path d="M0 0 C8.63157895 0.99595142 8.63157895 0.99595142 11 3 C11.75 6.625 11.75 6.625 12 10 C12.68964844 9.51917969 13.37929687 9.03835937 14.08984375 8.54296875 C17.43263417 6.77061678 19.80242758 6.50856403 23.5625 6.3125 C25.23505859 6.21388672 25.23505859 6.21388672 26.94140625 6.11328125 C29.29296151 6.02618661 31.64683243 6 34 6 C34.33 4.68 34.66 3.36 35 2 C50.61793826 1.45093186 50.61793826 1.45093186 58 5 C60.7654593 6.22414816 60.7654593 6.22414816 62.6875 5.5625 C66.62151474 4.6055775 71.33116789 4.16558394 75 6 C75 6.66 75 7.32 75 8 C74.34 8 73.68 8 73 8 C73 8.66 73 9.32 73 10 C73.95261719 9.96519531 74.90523438 9.93039063 75.88671875 9.89453125 C77.14097656 9.86746094 78.39523437 9.84039062 79.6875 9.8125 C80.92886719 9.77769531 82.17023438 9.74289063 83.44921875 9.70703125 C87.18564321 10.0153171 89.00629483 10.81911727 92 13 C91.67 13.99 91.34 14.98 91 16 C90.01 16 89.02 16 88 16 C88.495 17.485 88.495 17.485 89 19 C89.598125 18.649375 90.19625 18.29875 90.8125 17.9375 C93 17 93 17 96 18 C95.34 18 94.68 18 94 18 C94 19.65 94 21.3 94 23 C95.65 23.66 97.3 24.32 99 25 C98.67 26.32 98.34 27.64 98 29 C95.03 28.67 92.06 28.34 89 28 C89 27.01 89 26.02 89 25 C87.54207116 24.94600264 86.08357288 24.90720823 84.625 24.875 C83.81289063 24.85179688 83.00078125 24.82859375 82.1640625 24.8046875 C79.78657757 24.78629949 79.78657757 24.78629949 78 27 C77.566875 27.556875 77.13375 28.11375 76.6875 28.6875 C75 30 75 30 72.3125 29.6875 C71.549375 29.460625 70.78625 29.23375 70 29 C70.55728913 25.65626525 71.35173889 22.96687001 73 20 C71.02 20.33 69.04 20.66 67 21 C66.505 22.485 66.505 22.485 66 24 C65.34 24 64.68 24 64 24 C64 23.34 64 22.68 64 22 C59.94691667 20.89210465 55.92888626 20.66268733 51.75 20.4375 C50.63238281 20.37272461 50.63238281 20.37272461 49.4921875 20.30664062 C47.661651 20.20103275 45.83084824 20.10005799 44 20 C44.66 19.67 45.32 19.34 46 19 C45.67 17.35 45.34 15.7 45 14 C46.65 13.67 48.3 13.34 50 13 C49.505 11.515 49.505 11.515 49 10 C46.89415562 9.19436362 46.89415562 9.19436362 44.4375 8.8125 C43.19806641 8.57466797 43.19806641 8.57466797 41.93359375 8.33203125 C41.29550781 8.22246094 40.65742188 8.11289062 40 8 C41.32 7.67 42.64 7.34 44 7 C44 6.34 44 5.68 44 5 C41.69 4.34 39.38 3.68 37 3 C37 4.32 37 5.64 37 7 C34.21691254 8.39154373 31.64643646 8.00840893 28.59765625 7.96875 C24.37076327 8.01959984 20.19528681 8.50952806 16 9 C16 9.66 16 10.32 16 11 C15.01 11.33 14.02 11.66 13 12 C15.31 12.66 17.62 13.32 20 14 C20.33 15.32 20.66 16.64 21 18 C17.65747276 18.07427838 15.1964086 18.06546953 12 17 C10.60560336 16.93334624 9.20830125 16.91461801 7.8125 16.9375 C6.554375 16.958125 5.29625 16.97875 4 17 C3.67 16.34 3.34 15.68 3 15 C5.97 15 8.94 15 12 15 C12 14.34 12 13.68 12 13 C7.98813104 12.79654492 7.98813104 12.79654492 4 13 C2.97895449 13.97850195 1.9793879 14.97980427 1 16 C-1.67461922 16.5788755 -4.26244633 16.77561035 -7 17 C-7.33 16.34 -7.66 15.68 -8 15 C-7.360625 14.38125 -6.72125 13.7625 -6.0625 13.125 C-3.96116416 11.17402388 -3.96116416 11.17402388 -3 9 C0.96 9 4.92 9 9 9 C9 8.34 9 7.68 9 7 C8.34 6.67 7.68 6.34 7 6 C7 5.34 7 4.68 7 4 C4.69 3.34 2.38 2.68 0 2 C0 1.34 0 0.68 0 0 Z " fill="#F1F0F0" transform="translate(189,27)"/>
<path d="M0 0 C8.63157895 0.99595142 8.63157895 0.99595142 11 3 C11.75 6.625 11.75 6.625 12 10 C12.68964844 9.51917969 13.37929687 9.03835937 14.08984375 8.54296875 C17.43263417 6.77061678 19.80242758 6.50856403 23.5625 6.3125 C25.23505859 6.21388672 25.23505859 6.21388672 26.94140625 6.11328125 C29.29296151 6.02618661 31.64683243 6 34 6 C34.33 4.68 34.66 3.36 35 2 C50.61793826 1.45093186 50.61793826 1.45093186 58 5 C60.7654593 6.22414816 60.7654593 6.22414816 62.6875 5.5625 C66.62151474 4.6055775 71.33116789 4.16558394 75 6 C75 6.66 75 7.32 75 8 C73.96875 7.835 72.9375 7.67 71.875 7.5 C68.51755674 7.06678152 65.37663843 6.91764297 62 7 C61.67 7.99 61.34 8.98 61 10 C60.34 10 59.68 10 59 10 C59 9.34 59 8.68 59 8 C58.34 8 57.68 8 57 8 C56.505 7.01 56.505 7.01 56 6 C51.0976011 4.26795411 47.05414512 3.87685664 42 5 C39.1875 4.0625 39.1875 4.0625 37 3 C37 4.32 37 5.64 37 7 C34.21691254 8.39154373 31.64643646 8.00840893 28.59765625 7.96875 C24.37076327 8.01959984 20.19528681 8.50952806 16 9 C16 9.66 16 10.32 16 11 C15.01 11.33 14.02 11.66 13 12 C15.31 12.66 17.62 13.32 20 14 C20.33 15.32 20.66 16.64 21 18 C17.65747276 18.07427838 15.1964086 18.06546953 12 17 C10.60560336 16.93334624 9.20830125 16.91461801 7.8125 16.9375 C6.554375 16.958125 5.29625 16.97875 4 17 C3.67 16.34 3.34 15.68 3 15 C5.97 15 8.94 15 12 15 C12 14.34 12 13.68 12 13 C7.98813104 12.79654492 7.98813104 12.79654492 4 13 C2.97895449 13.97850195 1.9793879 14.97980427 1 16 C-1.67461922 16.5788755 -4.26244633 16.77561035 -7 17 C-7.33 16.34 -7.66 15.68 -8 15 C-7.360625 14.38125 -6.72125 13.7625 -6.0625 13.125 C-3.96116416 11.17402388 -3.96116416 11.17402388 -3 9 C0.96 9 4.92 9 9 9 C9 8.34 9 7.68 9 7 C8.34 6.67 7.68 6.34 7 6 C7 5.34 7 4.68 7 4 C4.69 3.34 2.38 2.68 0 2 C0 1.34 0 0.68 0 0 Z " fill="#343131" transform="translate(189,27)"/>
<path d="M0 0 C1.32 0 2.64 0 4 0 C4 0.66 4 1.32 4 2 C4.95261719 1.96519531 5.90523438 1.93039063 6.88671875 1.89453125 C8.14097656 1.86746094 9.39523437 1.84039062 10.6875 1.8125 C12.54955078 1.76029297 12.54955078 1.76029297 14.44921875 1.70703125 C18.18564321 2.0153171 20.00629483 2.81911727 23 5 C22.67 5.99 22.34 6.98 22 8 C21.01 8 20.02 8 19 8 C19.33 8.99 19.66 9.98 20 11 C20.598125 10.649375 21.19625 10.29875 21.8125 9.9375 C24 9 24 9 27 10 C26.34 10 25.68 10 25 10 C25 11.65 25 13.3 25 15 C26.65 15.66 28.3 16.32 30 17 C29.67 18.32 29.34 19.64 29 21 C26.03 20.67 23.06 20.34 20 20 C20 19.01 20 18.02 20 17 C18.54207116 16.94600264 17.08357288 16.90720823 15.625 16.875 C14.81289063 16.85179688 14.00078125 16.82859375 13.1640625 16.8046875 C10.78657757 16.78629949 10.78657757 16.78629949 9 19 C8.566875 19.556875 8.13375 20.11375 7.6875 20.6875 C6 22 6 22 3.3125 21.6875 C2.549375 21.460625 1.78625 21.23375 1 21 C1.33 19.35 1.66 17.7 2 16 C2.94875 16.020625 3.8975 16.04125 4.875 16.0625 C7.90666283 16.22551826 7.90666283 16.22551826 10 15 C9.34 14.34 8.68 13.68 8 13 C10.64 12.67 13.28 12.34 16 12 C16.33 10.35 16.66 8.7 17 7 C18.32 7 19.64 7 21 7 C21 6.34 21 5.68 21 5 C18.36 4.67 15.72 4.34 13 4 C14.32 4.66 15.64 5.32 17 6 C13.62182575 6.84454356 11.32534757 7.10844919 8 6 C8 6.99 8 7.98 8 9 C4.14354879 9.22036864 1.50776784 8.60355101 -2 7 C0.91765 5.0549 2.62537285 4.54723683 6 4 C4.68 3.67 3.36 3.34 2 3 C2 2.34 2 1.68 2 1 C1.34 0.67 0.68 0.34 0 0 Z " fill="#3A3838" transform="translate(258,35)"/>
<path d="M0 0 C2.12493141 -0.02693575 4.24995912 -0.04636628 6.375 -0.0625 C7.55835938 -0.07410156 8.74171875 -0.08570313 9.9609375 -0.09765625 C13 0 13 0 15 1 C15 3.31 15 5.62 15 8 C19.455 10.475 19.455 10.475 24 13 C24 14.32 24 15.64 24 17 C25.75103957 18.50400397 25.75103957 18.50400397 28 19.625 C30.25 20.8515625 30.25 20.8515625 32 22 C32 22.66 32 23.32 32 24 C32.99 24 33.98 24 35 24 C35 36.54 35 49.08 35 62 C34.67 62 34.34 62 34 62 C34 49.79 34 37.58 34 25 C32.02 25.66 30.04 26.32 28 27 C27.34 26.01 26.68 25.02 26 24 C27.32 24 28.64 24 30 24 C30 23.34 30 22.68 30 22 C29.01 22 28.02 22 27 22 C27 21.34 27 20.68 27 20 C26.01 20.99 25.02 21.98 24 23 C23.401875 22.690625 22.80375 22.38125 22.1875 22.0625 C19.91043228 20.89790296 19.91043228 20.89790296 17 20 C17 19.01 17 18.02 17 17 C18.32 17 19.64 17 21 17 C21.33 15.68 21.66 14.36 22 13 C19.69 12.67 17.38 12.34 15 12 C15 11.34 15 10.68 15 10 C14.01 10.33 13.02 10.66 12 11 C12.33 8.03 12.66 5.06 13 2 C10.03 2 7.06 2 4 2 C3.67 2.66 3.34 3.32 3 4 C3.66 4 4.32 4 5 4 C4.67 5.65 4.34 7.3 4 9 C1.69 9.33 -0.62 9.66 -3 10 C-3 8.68 -3 7.36 -3 6 C-5.64 6 -8.28 6 -11 6 C-11 5.67 -11 5.34 -11 5 C-5.49633208 4.67625483 -1.56327794 4.46713966 3 8 C2.67 7.01 2.34 6.02 2 5 C1.01 4.67 0.02 4.34 -1 4 C-0.67 2.68 -0.34 1.36 0 0 Z " fill="#242323" transform="translate(551,36)"/>
<path d="M0 0 C1.84765625 0.33984375 1.84765625 0.33984375 4.0625 0.9375 C4.79597656 1.13214844 5.52945313 1.32679687 6.28515625 1.52734375 C6.85105469 1.68332031 7.41695313 1.83929688 8 2 C8 2.66 8 3.32 8 4 C6.02 4.99 6.02 4.99 4 6 C4 7.32 4 8.64 4 10 C3.2575 10.103125 2.515 10.20625 1.75 10.3125 C-1.05 10.80625 -1.05 10.80625 -3 12.625 C-5 14 -5 14 -7.75 13.6875 C-8.4925 13.460625 -9.235 13.23375 -10 13 C-9.67 11.68 -9.34 10.36 -9 9 C-10.98 9.33 -12.96 9.66 -15 10 C-15.33 10.99 -15.66 11.98 -16 13 C-16.66 13 -17.32 13 -18 13 C-18 12.34 -18 11.68 -18 11 C-22.05308333 9.89210465 -26.07111374 9.66268733 -30.25 9.4375 C-30.99507812 9.39431641 -31.74015625 9.35113281 -32.5078125 9.30664062 C-34.338349 9.20103275 -36.16915176 9.10005799 -38 9 C-36.68 7.68 -35.36 6.36 -34 5 C-34 5.66 -34 6.32 -34 7 C-33.39414063 6.97679687 -32.78828125 6.95359375 -32.1640625 6.9296875 C-25.85124971 6.79371922 -20.13568071 7.53788034 -14 9 C-14 8.01 -14 7.02 -14 6 C-11.03 6 -8.06 6 -5 6 C-5 5.01 -5 4.02 -5 3 C-2.36 3 0.28 3 3 3 C1.68 2.34 0.36 1.68 -1 1 C-0.67 0.67 -0.34 0.34 0 0 Z " fill="#EDECEC" transform="translate(271,38)"/>
<path d="M0 0 C0.33 0.66 0.66 1.32 1 2 C0.67 2.66 0.34 3.32 0 4 C1.79126452 4.33548767 3.58302587 4.66832355 5.375 5 C6.87160156 5.2784375 6.87160156 5.2784375 8.3984375 5.5625 C10.88903545 6.05527983 10.88903545 6.05527983 13 6 C13 6.99 13 7.98 13 9 C9.37 9.33 5.74 9.66 2 10 C3.32 10.33 4.64 10.66 6 11 C5.67 11.66 5.34 12.32 5 13 C3.845 12.835 2.69 12.67 1.5 12.5 C-2.69907803 11.96761689 -6.77063041 11.92447554 -11 12 C-11 11.67 -11 11.34 -11 11 C-9.02 11 -7.04 11 -5 11 C-5.33 9.68 -5.66 8.36 -6 7 C-7.3303125 7.061875 -7.3303125 7.061875 -8.6875 7.125 C-11.97277013 7.00102754 -14.05449295 6.38612096 -17 5 C-17 4.67 -17 4.34 -17 4 C-14.69 4 -12.38 4 -10 4 C-10 3.34 -10 2.68 -10 2 C-6.7 1.34 -3.4 0.68 0 0 Z " fill="#E6E4E5" transform="translate(215,34)"/>
<path d="M0 0 C8.57142857 -0.14285714 8.57142857 -0.14285714 12 1 C12 1.66 12 2.32 12 3 C15.65456815 3.75241109 19.31733897 4.40049704 23 5 C23.33 6.32 23.66 7.64 24 9 C20.65747276 9.07427838 18.1964086 9.06546953 15 8 C13.60560336 7.93334624 12.20830125 7.91461801 10.8125 7.9375 C9.554375 7.958125 8.29625 7.97875 7 8 C6.67 7.34 6.34 6.68 6 6 C8.97 6 11.94 6 15 6 C15 5.34 15 4.68 15 4 C10.98813104 3.79654492 10.98813104 3.79654492 7 4 C5.97895449 4.97850195 4.9793879 5.97980427 4 7 C1.32538078 7.5788755 -1.26244633 7.77561035 -4 8 C-4.33 7.34 -4.66 6.68 -5 6 C-4.360625 5.38125 -3.72125 4.7625 -3.0625 4.125 C-0.96116416 2.17402388 -0.96116416 2.17402388 0 0 Z " fill="#2F2C2D" transform="translate(186,36)"/>
<path d="M0 0 C0.495 1.485 0.495 1.485 1 3 C2.65 2.34 4.3 1.68 6 1 C6.66 1.66 7.32 2.32 8 3 C6 5 6 5 3.375 5.125 C2.59125 5.08375 1.8075 5.0425 1 5 C0.67 6.32 0.34 7.64 0 9 C-0.66 9 -1.32 9 -2 9 C-2 8.01 -2 7.02 -2 6 C-4.31 6 -6.62 6 -9 6 C-9.33 6.99 -9.66 7.98 -10 9 C-16.6 9 -23.2 9 -30 9 C-30.33 9.66 -30.66 10.32 -31 11 C-32.65 11 -34.3 11 -36 11 C-36 10.01 -36 9.02 -36 8 C-33.12389604 7.18320768 -30.53645288 6.86823279 -27.55078125 6.82421875 C-26.70193359 6.80037109 -25.85308594 6.77652344 -24.97851562 6.75195312 C-23.22093892 6.70946226 -21.46305741 6.6779557 -19.70507812 6.65820312 C-14.07211854 6.47567316 -9.91923709 5.44118702 -4.89916992 2.85083008 C-3 2 -3 2 0 2 C0 1.34 0 0.68 0 0 Z " fill="#2A2829" transform="translate(340,45)"/>
<path d="M0 0 C0.66 0.33 1.32 0.66 2 1 C1.34 2.65 0.68 4.3 0 6 C0.66 6 1.32 6 2 6 C2 5.34 2 4.68 2 4 C2.99 3.67 3.98 3.34 5 3 C4.67 4.32 4.34 5.64 4 7 C6.64 7.33 9.28 7.66 12 8 C12 8.99 12 9.98 12 11 C12.99 11 13.98 11 15 11 C15 10.34 15 9.68 15 9 C16.32 9 17.64 9 19 9 C17.78172689 13.02967261 16.52453645 16.60158555 14 20 C11.8125 20.8125 11.8125 20.8125 10 21 C10.33 22.65 10.66 24.3 11 26 C10.01 26 9.02 26 8 26 C7.855625 25.38125 7.71125 24.7625 7.5625 24.125 C7.06847775 21.96741678 7.06847775 21.96741678 6 20 C6.928125 19.608125 7.85625 19.21625 8.8125 18.8125 C12.22550118 16.87177384 13.31198404 15.46981059 15 12 C14.030625 11.855625 13.06125 11.71125 12.0625 11.5625 C9 11 9 11 8 10 C6.906875 9.896875 5.81375 9.79375 4.6875 9.6875 C0.68058098 8.9404473 -0.49738139 8.10324707 -3 5 C-2.67 4.01 -2.34 3.02 -2 2 C-1.34 2 -0.68 2 0 2 C0 1.34 0 0.68 0 0 Z " fill="#363435" transform="translate(120,27)"/>
<path d="M0 0 C2.171875 -0.328125 2.171875 -0.328125 4.75 -0.25 C5.63945312 -0.22421875 6.52890625 -0.1984375 7.4453125 -0.171875 C10.34543153 0.02324004 13.1553642 0.40112931 16 1 C16 1.66 16 2.32 16 3 C16.969375 3.268125 17.93875 3.53625 18.9375 3.8125 C19.948125 4.204375 20.95875 4.59625 22 5 C22.33 5.99 22.66 6.98 23 8 C24.65 7.67 26.3 7.34 28 7 C27.01 8.485 27.01 8.485 26 10 C23.4375 10.25 23.4375 10.25 21 10 C20.67 9.67 20.34 9.34 20 9 C15.47357775 8.84911926 11.41699488 8.89575128 7 10 C6.67 9.01 6.34 8.02 6 7 C7.65 6.67 9.3 6.34 11 6 C10.67 5.34 10.34 4.68 10 4 C10.99 3.67 11.98 3.34 13 3 C7.06 2.01 7.06 2.01 1 1 C0.67 1.99 0.34 2.98 0 4 C-0.66 3.67 -1.32 3.34 -2 3 C-1.34 2.01 -0.68 1.02 0 0 Z " fill="#353333" transform="translate(124,23)"/>
<path d="M0 0 C6.0546875 -0.1953125 6.0546875 -0.1953125 8 0 C8.66 0.66 9.32 1.32 10 2 C12.88717605 2.6837613 12.88717605 2.6837613 16.125 3.125 C17.22070312 3.29257812 18.31640625 3.46015625 19.4453125 3.6328125 C20.28835938 3.75398438 21.13140625 3.87515625 22 4 C21.67 5.32 21.34 6.64 21 8 C18.03 7.67 15.06 7.34 12 7 C12 6.01 12 5.02 12 4 C10.54207116 3.94600264 9.08357288 3.90720823 7.625 3.875 C6.40683594 3.84019531 6.40683594 3.84019531 5.1640625 3.8046875 C2.78657757 3.78629949 2.78657757 3.78629949 1 6 C0.3503125 6.8353125 0.3503125 6.8353125 -0.3125 7.6875 C-2 9 -2 9 -4.6875 8.6875 C-5.450625 8.460625 -6.21375 8.23375 -7 8 C-6.67 6.35 -6.34 4.7 -6 3 C-5.05125 3.020625 -4.1025 3.04125 -3.125 3.0625 C-0.09333717 3.22551826 -0.09333717 3.22551826 2 2 C1.34 1.34 0.68 0.68 0 0 Z " fill="#302E2E" transform="translate(266,48)"/>
<path d="M0 0 C2.12493141 -0.02693575 4.24995912 -0.04636628 6.375 -0.0625 C7.55835938 -0.07410156 8.74171875 -0.08570313 9.9609375 -0.09765625 C13 0 13 0 15 1 C15 3.31 15 5.62 15 8 C16.98 8.99 18.96 9.98 21 11 C21 11.66 21 12.32 21 13 C18.03 12.505 18.03 12.505 15 12 C15 11.34 15 10.68 15 10 C14.01 10.33 13.02 10.66 12 11 C12.33 8.03 12.66 5.06 13 2 C10.03 2 7.06 2 4 2 C3.67 2.66 3.34 3.32 3 4 C3.66 4 4.32 4 5 4 C4.67 5.65 4.34 7.3 4 9 C1.69 9.33 -0.62 9.66 -3 10 C-3 8.68 -3 7.36 -3 6 C-5.64 6 -8.28 6 -11 6 C-11 5.67 -11 5.34 -11 5 C-5.49633208 4.67625483 -1.56327794 4.46713966 3 8 C2.67 7.01 2.34 6.02 2 5 C1.01 4.67 0.02 4.34 -1 4 C-0.67 2.68 -0.34 1.36 0 0 Z " fill="#454343" transform="translate(551,36)"/>
<path d="M0 0 C1.22589844 0.29197266 1.22589844 0.29197266 2.4765625 0.58984375 C3.41628906 0.82380859 3.41628906 0.82380859 4.375 1.0625 C4.705 2.7125 5.035 4.3625 5.375 6.0625 C4.055 6.0625 2.735 6.0625 1.375 6.0625 C1.375 7.3825 1.375 8.7025 1.375 10.0625 C1.375 10.7225 1.375 11.3825 1.375 12.0625 C-1.595 11.5675 -1.595 11.5675 -4.625 11.0625 C-4.625 10.4025 -4.625 9.7425 -4.625 9.0625 C-3.635 9.0625 -2.645 9.0625 -1.625 9.0625 C-1.955 8.0725 -2.285 7.0825 -2.625 6.0625 C-4.73084438 5.25686362 -4.73084438 5.25686362 -7.1875 4.875 C-8.01378906 4.71644531 -8.84007812 4.55789062 -9.69140625 4.39453125 C-10.32949219 4.28496094 -10.96757812 4.17539062 -11.625 4.0625 C-10.985625 3.959375 -10.34625 3.85625 -9.6875 3.75 C-9.006875 3.523125 -8.32625 3.29625 -7.625 3.0625 C-7.295 2.0725 -6.965 1.0825 -6.625 0.0625 C-3.99249612 -1.25375194 -2.82320944 -0.68563658 0 0 Z " fill="#EFEEEE" transform="translate(240.625,30.9375)"/>
<path d="M0 0 C0 -0.66 0 -1.32 0 -2 C0.66 -2 1.32 -2 2 -2 C1.67 -1.01 1.34 -0.02 1 1 C-3.6573692 1.13306769 -7.58574544 0.47141819 -12 -1 C-12 -0.34 -12 0.32 -12 1 C-13.04800781 1.09087891 -13.04800781 1.09087891 -14.1171875 1.18359375 C-15.02726562 1.26738281 -15.93734375 1.35117187 -16.875 1.4375 C-17.77992188 1.51871094 -18.68484375 1.59992187 -19.6171875 1.68359375 C-22.01110861 1.86989285 -22.01110861 1.86989285 -24 3 C-24 3.66 -24 4.32 -24 5 C-24.763125 4.814375 -25.52625 4.62875 -26.3125 4.4375 C-29.08967375 3.77180827 -29.08967375 3.77180827 -32 5 C-33.72795352 5.06802967 -35.45835365 5.08495645 -37.1875 5.0625 C-38.53908203 5.04896484 -38.53908203 5.04896484 -39.91796875 5.03515625 C-40.60503906 5.02355469 -41.29210937 5.01195312 -42 5 C-38.89048886 2.31653733 -36.49369937 1.46459584 -32.45703125 0.83203125 C-30.84538086 0.57583008 -30.84538086 0.57583008 -29.20117188 0.31445312 C-28.08291016 0.14880859 -26.96464844 -0.01683594 -25.8125 -0.1875 C-24.71357422 -0.36474609 -23.61464844 -0.54199219 -22.48242188 -0.72460938 C-5.85872439 -3.29201405 -5.85872439 -3.29201405 0 0 Z " fill="#373535" transform="translate(440,39)"/>
<path d="M0 0 C1.32 0 2.64 0 4 0 C4 1.32 4 2.64 4 4 C7.16824393 6.44407389 10.06629643 7.43804235 14 8 C13.01 8.33 12.02 8.66 11 9 C11 9.66 11 10.32 11 11 C11.91523438 10.97679687 12.83046875 10.95359375 13.7734375 10.9296875 C14.96195312 10.91164063 16.15046875 10.89359375 17.375 10.875 C18.55835938 10.85179687 19.74171875 10.82859375 20.9609375 10.8046875 C24 11 24 11 26 13 C25.30132812 12.96519531 24.60265625 12.93039063 23.8828125 12.89453125 C22.97273438 12.86746094 22.06265625 12.84039062 21.125 12.8125 C20.22007812 12.77769531 19.31515625 12.74289063 18.3828125 12.70703125 C17.59648437 12.80371094 16.81015625 12.90039062 16 13 C15.01 14.485 15.01 14.485 14 16 C14 15.34 14 14.68 14 14 C12.9275 14.04125 11.855 14.0825 10.75 14.125 C7.34252515 14.0114175 5.79260369 13.78726636 3 12 C3.99 11.01 4.98 10.02 6 9 C5.67 8.67 5.34 8.34 5 8 C5 7.34 5 6.68 5 6 C4.01 5.67 3.02 5.34 2 5 C2 3.68 2 2.36 2 1 C1.34 0.67 0.68 0.34 0 0 Z " fill="#323030" transform="translate(442,36)"/>
<path d="M0 0 C3.125 -0.1875 3.125 -0.1875 6 0 C6.309375 0.804375 6.61875 1.60875 6.9375 2.4375 C7.76335345 4.89080405 7.76335345 4.89080405 9 6 C10.51928038 6.07179964 12.04167482 6.08392007 13.5625 6.0625 C14.38878906 6.05347656 15.21507812 6.04445313 16.06640625 6.03515625 C17.02353516 6.01775391 17.02353516 6.01775391 18 6 C18 6.66 18 7.32 18 8 C16.39592672 8.02708567 14.7917215 8.04643483 13.1875 8.0625 C11.84751953 8.07990234 11.84751953 8.07990234 10.48046875 8.09765625 C8 8 8 8 5 7 C4.505 4.525 4.505 4.525 4 2 C2.68 2 1.36 2 0 2 C0.33 2.99 0.66 3.98 1 5 C-2.4970408 5.06994082 -5.7365892 5.04648426 -9.1875 4.4375 C-11.84959857 3.83340413 -11.84959857 3.83340413 -13.81640625 4.46875 C-16.51462771 5.12520459 -18.97640023 5.09551904 -21.75 5.0625 C-22.73484375 5.05347656 -23.7196875 5.04445313 -24.734375 5.03515625 C-25.48203125 5.02355469 -26.2296875 5.01195312 -27 5 C-27.33 4.34 -27.66 3.68 -28 3 C-24.41713181 2.80279021 -20.83369943 2.61892478 -17.25 2.4375 C-16.23421875 2.38142578 -15.2184375 2.32535156 -14.171875 2.26757812 C-13.1921875 2.21923828 -12.2125 2.17089844 -11.203125 2.12109375 C-10.30239258 2.0739624 -9.40166016 2.02683105 -8.47363281 1.97827148 C-6.12542592 1.99889825 -4.23793298 2.32176929 -2 3 C-1.34 2.01 -0.68 1.02 0 0 Z " fill="#383536" transform="translate(513,39)"/>
<path d="M0 0 C1.32 0 2.64 0 4 0 C4 1.32 4 2.64 4 4 C4.83144531 3.89300781 5.66289062 3.78601562 6.51953125 3.67578125 C7.60621094 3.55589844 8.69289063 3.43601563 9.8125 3.3125 C10.89144531 3.18488281 11.97039062 3.05726562 13.08203125 2.92578125 C16 3 16 3 17.88671875 4.48046875 C18.25410156 4.98191406 18.62148438 5.48335937 19 6 C18.34 6.66 17.68 7.32 17 8 C17.66 8.66 18.32 9.32 19 10 C18.34 10 17.68 10 17 10 C17 10.66 17 11.32 17 12 C15 11 15 11 12.4375 8.9375 C10.3884844 6.89629265 10.3884844 6.89629265 9 7 C9 7.66 9 8.32 9 9 C6.69 8.34 4.38 7.68 2 7 C2.33 6.01 2.66 5.02 3 4 C2.34 3.67 1.68 3.34 1 3 C1.33 2.34 1.66 1.68 2 1 C1.34 0.67 0.68 0.34 0 0 Z " fill="#646060" transform="translate(285,43)"/>
<path d="M0 0 C-3.41556686 1.70778343 -7.22879083 1.62287908 -11 2 C-7.7 2 -4.4 2 -1 2 C-0.67 2.66 -0.34 3.32 0 4 C-0.99 4 -1.98 4 -3 4 C-3 4.66 -3 5.32 -3 6 C-11.415 6.495 -11.415 6.495 -20 7 C-19.01 6.34 -18.02 5.68 -17 5 C-17.66 4.67 -18.32 4.34 -19 4 C-19 3.01 -19 2.02 -19 1 C-15.92230272 -0.02589909 -13.28831247 -0.34588149 -10.0625 -0.625 C-8.50208984 -0.76808594 -8.50208984 -0.76808594 -6.91015625 -0.9140625 C-4.31785591 -0.99061365 -2.44619061 -0.78985432 0 0 Z " fill="#302E2E" transform="translate(361,38)"/>
<path d="M0 0 C0 0.66 0 1.32 0 2 C-1.98 2.99 -1.98 2.99 -4 4 C-2.02 4.66 -0.04 5.32 2 6 C2 6.33 2 6.66 2 7 C1.39671875 6.9278125 0.7934375 6.855625 0.171875 6.78125 C-0.62734375 6.6884375 -1.4265625 6.595625 -2.25 6.5 C-3.03890625 6.4071875 -3.8278125 6.314375 -4.640625 6.21875 C-7.26890397 5.93845381 -7.26890397 5.93845381 -11 6 C-13 6 -15 6 -17 6 C-16.67 6.66 -16.34 7.32 -16 8 C-16.99 7.67 -17.98 7.34 -19 7 C-19 6.34 -19 5.68 -19 5 C-20.32 5 -21.64 5 -23 5 C-23 5.66 -23 6.32 -23 7 C-23.61875 7.144375 -24.2375 7.28875 -24.875 7.4375 C-27.03258322 7.93152225 -27.03258322 7.93152225 -29 9 C-28.67 7.68 -28.34 6.36 -28 5 C-23.47780396 3.57070488 -18.72091102 3.69242626 -14.01953125 3.5703125 C-8.88674968 3.33832237 -4.68843196 0 0 0 Z " fill="#4A4848" transform="translate(94,48)"/>
<path d="M0 0 C0.33 0.66 0.66 1.32 1 2 C1.60585937 1.97679687 2.21171875 1.95359375 2.8359375 1.9296875 C9.14875029 1.79371922 14.86431929 2.53788034 21 4 C21 3.01 21 2.02 21 1 C23.38564077 1.57584432 25.66682784 2.22227595 28 3 C28 3.99 28 4.98 28 6 C27.34 6 26.68 6 26 6 C26 5.34 26 4.68 26 4 C24.02 4.33 22.04 4.66 20 5 C19.67 5.99 19.34 6.98 19 8 C18.34 8 17.68 8 17 8 C17 7.34 17 6.68 17 6 C12.94691667 4.89210465 8.92888626 4.66268733 4.75 4.4375 C3.63238281 4.37272461 3.63238281 4.37272461 2.4921875 4.30664062 C0.661651 4.20103275 -1.16915176 4.10005799 -3 4 C-2.01 2.68 -1.02 1.36 0 0 Z " fill="#6B6A6A" transform="translate(236,43)"/>
<path d="M0 0 C0.8971875 0.309375 0.8971875 0.309375 1.8125 0.625 C1.8125 1.945 1.8125 3.265 1.8125 4.625 C2.39 4.41875 2.9675 4.2125 3.5625 4 C6.42482805 3.52294533 7.23913644 4.33831822 9.8125 5.625 C12.47610025 6.09625235 15.11743254 6.35549325 17.8125 6.625 C16.625 8.1875 16.625 8.1875 14.8125 9.625 C12.25 9.3125 12.25 9.3125 9.8125 8.625 C7.7379644 8.4759288 7.7379644 8.4759288 5.8125 9.625 C5.1525 8.635 4.4925 7.645 3.8125 6.625 C2.1625 6.955 0.5125 7.285 -1.1875 7.625 C-0.8575 5.645 -0.5275 3.665 -0.1875 1.625 C-0.909375 2.099375 -1.63125 2.57375 -2.375 3.0625 C-5.08225226 4.56652903 -7.14944275 5.19099182 -10.1875 5.625 C-2.68278302 -0.45990566 -2.68278302 -0.45990566 0 0 Z " fill="#3B393A" transform="translate(104.1875,42.375)"/>
<path d="M0 0 C0.84820312 0.30164062 1.69640625 0.60328125 2.5703125 0.9140625 C6.11670178 2.16126362 8.92777854 2.71461068 12.6953125 2.5390625 C12.6953125 3.5290625 12.6953125 4.5190625 12.6953125 5.5390625 C7.2503125 6.0340625 7.2503125 6.0340625 1.6953125 6.5390625 C3.0153125 6.8690625 4.3353125 7.1990625 5.6953125 7.5390625 C5.3653125 8.1990625 5.0353125 8.8590625 4.6953125 9.5390625 C0.2403125 8.5490625 0.2403125 8.5490625 -4.3046875 7.5390625 C-3.3146875 7.2090625 -2.3246875 6.8790625 -1.3046875 6.5390625 C-1.3046875 5.8790625 -1.3046875 5.2190625 -1.3046875 4.5390625 C-1.9646875 4.2090625 -2.6246875 3.8790625 -3.3046875 3.5390625 C-1.9846875 3.5390625 -0.6646875 3.5390625 0.6953125 3.5390625 C0.6953125 2.8790625 0.6953125 2.2190625 0.6953125 1.5390625 C-1.2846875 1.5390625 -3.2646875 1.5390625 -5.3046875 1.5390625 C-2.3046875 -0.4609375 -2.3046875 -0.4609375 0 0 Z " fill="#454444" transform="translate(215.3046875,37.4609375)"/>
<path d="M0 0 C0.268125 0.94875 0.53625 1.8975 0.8125 2.875 C1.74986588 6.25267273 1.74986588 6.25267273 5 8 C4.01 8 3.02 8 2 8 C2 8.66 2 9.32 2 10 C3.98 10.66 5.96 11.32 8 12 C7.01 12.66 6.02 13.32 5 14 C3.68 13.34 2.36 12.68 1 12 C1 10.68 1 9.36 1 8 C-2.96 7.67 -6.92 7.34 -11 7 C-11 6.67 -11 6.34 -11 6 C-8.69 6 -6.38 6 -4 6 C-4 5.34 -4 4.68 -4 4 C-4.99 3.67 -5.98 3.34 -7 3 C-6.01 3 -5.02 3 -4 3 C-4 2.34 -4 1.68 -4 1 C-2 0 -2 0 0 0 Z " fill="#B6B4B4" transform="translate(287,44)"/>
<path d="M0 0 C0.99 0 1.98 0 3 0 C3 0.66 3 1.32 3 2 C6.65456815 2.75241109 10.31733897 3.40049704 14 4 C14.33 5.32 14.66 6.64 15 8 C11.65747276 8.07427838 9.1964086 8.06546953 6 7 C4.60560336 6.93334624 3.20830125 6.91461801 1.8125 6.9375 C0.554375 6.958125 -0.70375 6.97875 -2 7 C-2.33 6.34 -2.66 5.68 -3 5 C-0.03 5 2.94 5 6 5 C6 4.34 6 3.68 6 3 C4.35 3 2.7 3 1 3 C0.67 2.01 0.34 1.02 0 0 Z " fill="#706F6F" transform="translate(195,37)"/>
<path d="M0 0 C0.66 1.32 1.32 2.64 2 4 C4.47266765 3.65555119 4.47266765 3.65555119 7 3 C7.33 2.34 7.66 1.68 8 1 C8.66 1 9.32 1 10 1 C10 1.66 10 2.32 10 3 C12.31 3.66 14.62 4.32 17 5 C17 5.33 17 5.66 17 6 C11.72 6 6.44 6 1 6 C0.34 4.68 -0.32 3.36 -1 2 C-9.415 2.495 -9.415 2.495 -18 3 C-18 2.67 -18 2.34 -18 2 C-11.93184478 0.77100654 -6.20104812 -0.27560214 0 0 Z " fill="#312F2F" transform="translate(475,42)"/>
<path d="M0 0 C1.37865234 -0.01836914 1.37865234 -0.01836914 2.78515625 -0.03710938 C4.10193359 -0.04000977 4.10193359 -0.04000977 5.4453125 -0.04296875 C6.24727051 -0.04707764 7.04922852 -0.05118652 7.87548828 -0.05541992 C9.875 0.1875 9.875 0.1875 11.875 2.1875 C5.275 2.1875 -1.325 2.1875 -8.125 2.1875 C-8.455 2.8475 -8.785 3.5075 -9.125 4.1875 C-10.775 4.1875 -12.425 4.1875 -14.125 4.1875 C-14.125 3.1975 -14.125 2.2075 -14.125 1.1875 C-9.43386953 -0.15809608 -4.84637605 0.00342742 0 0 Z " fill="#3A3738" transform="translate(318.125,51.8125)"/>
<path d="M0 0 C8.63157895 0.99595142 8.63157895 0.99595142 11 3 C11.75 6.625 11.75 6.625 12 10 C12.99 9.34 13.98 8.68 15 8 C18.1875 7.875 18.1875 7.875 21 8 C21 8.33 21 8.66 21 9 C19.35 9 17.7 9 16 9 C16 9.66 16 10.32 16 11 C13.69 11 11.38 11 9 11 C9 9.68 9 8.36 9 7 C8.34 6.67 7.68 6.34 7 6 C7 5.34 7 4.68 7 4 C4.69 3.34 2.38 2.68 0 2 C0 1.34 0 0.68 0 0 Z " fill="#403E3E" transform="translate(189,27)"/>
<path d="M0 0 C0.66 0.33 1.32 0.66 2 1 C1.34 2.65 0.68 4.3 0 6 C0.66 6 1.32 6 2 6 C2 5.34 2 4.68 2 4 C2.99 3.67 3.98 3.34 5 3 C4.67 4.32 4.34 5.64 4 7 C6.64 7.33 9.28 7.66 12 8 C12 8.99 12 9.98 12 11 C1.84682713 9.66958425 1.84682713 9.66958425 -1.6875 6.875 C-2.120625 6.25625 -2.55375 5.6375 -3 5 C-2.67 4.01 -2.34 3.02 -2 2 C-1.34 2 -0.68 2 0 2 C0 1.34 0 0.68 0 0 Z " fill="#4A4647" transform="translate(120,27)"/>
<path d="M0 0 C3.3 0.33 6.6 0.66 10 1 C10.33 2.32 10.66 3.64 11 5 C10.40832031 4.98839844 9.81664062 4.97679687 9.20703125 4.96484375 C4.99768215 4.91677614 1.1077667 4.93993117 -3 6 C-3.33 5.01 -3.66 4.02 -4 3 C-2.35 2.67 -0.7 2.34 1 2 C0.67 1.34 0.34 0.68 0 0 Z " fill="#C9C6C7" transform="translate(134,27)"/>
<path d="M0 0 C0.66 0.99 1.32 1.98 2 3 C1.01 3 0.02 3 -1 3 C-0.67 3.99 -0.34 4.98 0 6 C0 7.32 0 8.64 0 10 C-2.97 9.505 -2.97 9.505 -6 9 C-6 8.34 -6 7.68 -6 7 C-5.01 7 -4.02 7 -3 7 C-3.33 6.01 -3.66 5.02 -4 4 C-6.10584438 3.19436362 -6.10584438 3.19436362 -8.5625 2.8125 C-9.38878906 2.65394531 -10.21507812 2.49539062 -11.06640625 2.33203125 C-11.70449219 2.22246094 -12.34257812 2.11289062 -13 2 C-9.87819599 1.03338637 -7.47916205 1.01011091 -4.25 1.4375 C-3.05117187 1.59025391 -3.05117187 1.59025391 -1.828125 1.74609375 C-1.22484375 1.82988281 -0.6215625 1.91367187 0 2 C0 1.34 0 0.68 0 0 Z " fill="#676767" transform="translate(242,33)"/>
<path d="M0 0 C-0.875 6.75 -0.875 6.75 -2 9 C-3.32 9 -4.64 9 -6 9 C-6.36521739 3.52173913 -6.36521739 3.52173913 -4.6875 1.125 C-3 0 -3 0 0 0 Z " fill="#BCBBBB" transform="translate(104,44)"/>
<path d="M0 0 C1.32 0 2.64 0 4 0 C4 2.31 4 4.62 4 7 C5.98 7.99 7.96 8.98 10 10 C10 10.66 10 11.32 10 12 C7.03 11.505 7.03 11.505 4 11 C4 10.34 4 9.68 4 9 C3.01 9.33 2.02 9.66 1 10 C1.33 7.03 1.66 4.06 2 1 C1.34 0.67 0.68 0.34 0 0 Z " fill="#525151" transform="translate(562,37)"/>
<path d="M0 0 C1.75570313 0.04060547 1.75570313 0.04060547 3.546875 0.08203125 C4.43890625 0.11683594 5.3309375 0.15164062 6.25 0.1875 C6.58 1.1775 6.91 2.1675 7.25 3.1875 C6.486875 3.001875 5.72375 2.81625 4.9375 2.625 C2.16032625 1.95930827 2.16032625 1.95930827 -0.75 3.1875 C-2.47795352 3.25552967 -4.20835365 3.27245645 -5.9375 3.25 C-7.28908203 3.23646484 -7.28908203 3.23646484 -8.66796875 3.22265625 C-9.35503906 3.21105469 -10.04210937 3.19945312 -10.75 3.1875 C-7.26391463 -0.10012011 -4.6928191 -0.14078457 0 0 Z " fill="#7D7C7C" transform="translate(408.75,40.8125)"/>
<path d="M0 0 C4.33147765 0.50958561 8.01392044 1.22840908 12 3 C12.99 3.33 13.98 3.66 15 4 C9.25 5.125 9.25 5.125 7 4 C6.67 4.99 6.34 5.98 6 7 C4.68 6.67 3.36 6.34 2 6 C2.66 5.01 3.32 4.02 4 3 C2.68 2.34 1.36 1.68 0 1 C0 0.67 0 0.34 0 0 Z " fill="#424141" transform="translate(152,29)"/>
<path d="M0 0 C2.38564077 0.57584432 4.66682784 1.22227595 7 2 C7 2.99 7 3.98 7 5 C6.34 5 5.68 5 5 5 C5 4.34 5 3.68 5 3 C3.02 3.33 1.04 3.66 -1 4 C-1.33 4.99 -1.66 5.98 -2 7 C-2.66 7 -3.32 7 -4 7 C-4.33 5.68 -4.66 4.36 -5 3 C-3.35 3 -1.7 3 0 3 C0 2.01 0 1.02 0 0 Z " fill="#4A4848" transform="translate(257,44)"/>
<path d="M0 0 C1.32 0 2.64 0 4 0 C4 1.32 4 2.64 4 4 C6.64 4 9.28 4 12 4 C12 4.33 12 4.66 12 5 C10.35 5.33 8.7 5.66 7 6 C7.66 6.33 8.32 6.66 9 7 C9 7.66 9 8.32 9 9 C6.69 8.34 4.38 7.68 2 7 C2.33 6.01 2.66 5.02 3 4 C2.34 3.67 1.68 3.34 1 3 C1.33 2.34 1.66 1.68 2 1 C1.34 0.67 0.68 0.34 0 0 Z " fill="#393637" transform="translate(285,43)"/>
<path d="M0 0 C-0.66 0 -1.32 0 -2 0 C-2 1.65 -2 3.3 -2 5 C-5.3 5 -8.6 5 -12 5 C-9.12020614 0.68030921 -5.11568591 -1.70522864 0 0 Z " fill="#5E5C5C" transform="translate(285,45)"/>
<path d="M0 0 C-3.97629479 2.65086319 -7.60511211 2.75554733 -12.28515625 3.33984375 C-15.32560879 3.75453494 -15.32560879 3.75453494 -17 7 C-18.32 6.67 -19.64 6.34 -21 6 C-20.01 6 -19.02 6 -18 6 C-18 4.68 -18 3.36 -18 2 C-16.75283203 1.80083984 -16.75283203 1.80083984 -15.48046875 1.59765625 C-14.39378906 1.42105469 -13.30710938 1.24445312 -12.1875 1.0625 C-11.10855469 0.88847656 -10.02960938 0.71445312 -8.91796875 0.53515625 C-2.12953368 -0.70984456 -2.12953368 -0.70984456 0 0 Z " fill="#262526" transform="translate(189,27)"/>
<path d="M0 0 C2.97 0 5.94 0 9 0 C7 4 7 4 4.5625 5.375 C3.2940625 5.684375 3.2940625 5.684375 2 6 C1.01 5.34 0.02 4.68 -1 4 C-0.67 2.68 -0.34 1.36 0 0 Z " fill="#514E4F" transform="translate(260,51)"/>
<path d="M0 0 C0 0.66 0 1.32 0 2 C-1.98 2.99 -1.98 2.99 -4 4 C-2.02 4.66 -0.04 5.32 2 6 C2 6.33 2 6.66 2 7 C-1.63 6.67 -5.26 6.34 -9 6 C-8 3 -8 3 -5.0625 1.3125 C-2 0 -2 0 0 0 Z " fill="#363333" transform="translate(94,48)"/>
<path d="M0 0 C5.94 0.99 5.94 0.99 12 2 C11.01 2.99 10.02 3.98 9 5 C6.4375 4.6875 6.4375 4.6875 4 4 C1.9254644 3.8509288 1.9254644 3.8509288 0 5 C0 3.35 0 1.7 0 0 Z " fill="#2C2A2A" transform="translate(110,47)"/>
<path d="M0 0 C1.31677734 -0.02126953 1.31677734 -0.02126953 2.66015625 -0.04296875 C4.9375 0.1875 4.9375 0.1875 6.9375 2.1875 C6.23882812 2.15269531 5.54015625 2.11789063 4.8203125 2.08203125 C3.91023438 2.05496094 3.00015625 2.02789062 2.0625 2 C1.15757812 1.96519531 0.25265625 1.93039063 -0.6796875 1.89453125 C-1.46601563 1.99121094 -2.25234375 2.08789062 -3.0625 2.1875 C-4.0525 3.6725 -4.0525 3.6725 -5.0625 5.1875 C-5.0625 4.5275 -5.0625 3.8675 -5.0625 3.1875 C-6.0525 3.1875 -7.0425 3.1875 -8.0625 3.1875 C-8.0625 2.5275 -8.0625 1.8675 -8.0625 1.1875 C-5.12020079 0.2067336 -3.0716216 0.02261872 0 0 Z " fill="#7D7C7C" transform="translate(461.0625,46.8125)"/>
<path d="M0 0 C1.98 0 3.96 0 6 0 C6.66 1.32 7.32 2.64 8 4 C6.68 4.33 5.36 4.66 4 5 C4 6.32 4 7.64 4 9 C3.01 9 2.02 9 1 9 C1.33 7.35 1.66 5.7 2 4 C3.32 4 4.64 4 6 4 C6 3.34 6 2.68 6 2 C3.03 1.505 3.03 1.505 0 1 C0 0.67 0 0.34 0 0 Z " fill="#383637" transform="translate(273,38)"/>
<path d="M0 0 C1.65 0.33 3.3 0.66 5 1 C4.67 2.32 4.34 3.64 4 5 C1.03 4.67 -1.94 4.34 -5 4 C-4.67 3.34 -4.34 2.68 -4 2 C-2.02 2.495 -2.02 2.495 0 3 C0 2.01 0 1.02 0 0 Z " fill="#403E3E" transform="translate(283,51)"/>
<path d="M0 0 C0.33 1.32 0.66 2.64 1 4 C-2.85645121 4.22036864 -5.49223216 3.60355101 -9 2 C-5.5647952 -0.29013653 -4.014669 -0.17842973 0 0 Z " fill="#777576" transform="translate(265,40)"/>
<path d="M0 0 C1.4540625 0.0309375 1.4540625 0.0309375 2.9375 0.0625 C3.2675 1.3825 3.5975 2.7025 3.9375 4.0625 C1.0625 4.25 1.0625 4.25 -2.0625 4.0625 C-2.7225 3.0725 -3.3825 2.0825 -4.0625 1.0625 C-3.0625 0.0625 -3.0625 0.0625 0 0 Z " fill="#282626" transform="translate(206.0625,40.9375)"/>
<path d="M0 0 C0 0.66 0 1.32 0 2 C-4.29 2 -8.58 2 -13 2 C-7.89905865 -1.40062757 -5.96067238 -0.86525889 0 0 Z " fill="#EEEDED" transform="translate(201,40)"/>
<path d="M0 0 C0.53625 0.37125 1.0725 0.7425 1.625 1.125 C-0.375 3.125 -0.375 3.125 -3 3.25 C-3.78375 3.20875 -4.5675 3.1675 -5.375 3.125 C-5.705 4.445 -6.035 5.765 -6.375 7.125 C-7.035 7.125 -7.695 7.125 -8.375 7.125 C-8.375 5.145 -8.375 3.165 -8.375 1.125 C-2.95961538 -1.09038462 -2.95961538 -1.09038462 0 0 Z " fill="#808080" transform="translate(346.375,46.875)"/>
<path d="M0 0 C0.66 0 1.32 0 2 0 C2 0.66 2 1.32 2 2 C4.31 2.66 6.62 3.32 9 4 C9 4.33 9 4.66 9 5 C4.71 5 0.42 5 -4 5 C-2.68 3.35 -1.36 1.7 0 0 Z " fill="#3C3A3B" transform="translate(483,43)"/>
<path d="M0 0 C1.3921875 0.3403125 1.3921875 0.3403125 2.8125 0.6875 C2.8125 1.6775 2.8125 2.6675 2.8125 3.6875 C0.1725 4.0175 -2.4675 4.3475 -5.1875 4.6875 C-5.5175 4.0275 -5.8475 3.3675 -6.1875 2.6875 C-4.14987265 -0.14253799 -3.59070275 -0.35202968 0 0 Z " fill="#5B5859" transform="translate(187.1875,39.3125)"/>
<path d="M0 0 C6.75 -0.125 6.75 -0.125 9 1 C8.67 1.99 8.34 2.98 8 4 C7.34 3.34 6.68 2.68 6 2 C5.01 2 4.02 2 3 2 C2.67 3.65 2.34 5.3 2 7 C1.67 5.68 1.34 4.36 1 3 C0.34 3 -0.32 3 -1 3 C-0.67 2.01 -0.34 1.02 0 0 Z " fill="#DEDBDC" transform="translate(555,37)"/>
<path d="M0 0 C1.65 0 3.3 0 5 0 C5.33 1.65 5.66 3.3 6 5 C4.35 5.33 2.7 5.66 1 6 C1 4 1 4 2 3 C1.34 2.67 0.68 2.34 0 2 C0 1.34 0 0.68 0 0 Z " fill="#D1D0D0" transform="translate(240,32)"/>
<path d="M0 0 C0.99 0.33 1.98 0.66 3 1 C3 1.66 3 2.32 3 3 C3.99 3.33 4.98 3.66 6 4 C3.69 4.66 1.38 5.32 -1 6 C-1.66 5.01 -2.32 4.02 -3 3 C-1.68 3 -0.36 3 1 3 C0.67 2.01 0.34 1.02 0 0 Z " fill="#434343" transform="translate(580,57)"/>
<path d="M0 0 C0.66 1.32 1.32 2.64 2 4 C1.01 5.485 1.01 5.485 0 7 C-1.32 6.34 -2.64 5.68 -4 5 C-4 4.01 -4 3.02 -4 2 C-2.68 2 -1.36 2 0 2 C0 1.34 0 0.68 0 0 Z " fill="#343232" transform="translate(572,51)"/>
<path d="M0 0 C3.3 0.33 6.6 0.66 10 1 C10 1.99 10 2.98 10 4 C7.03 4 4.06 4 1 4 C1.33 3.34 1.66 2.68 2 2 C1.34 1.34 0.68 0.68 0 0 Z " fill="#7E7D7D" transform="translate(218,39)"/>
<path d="M0 0 C1.65 0.33 3.3 0.66 5 1 C5 1.66 5 2.32 5 3 C3 5 3 5 1.0546875 5.1953125 C-0.96354167 5.13020833 -2.98177083 5.06510417 -5 5 C-5 4.67 -5 4.34 -5 4 C-3.02 4 -1.04 4 1 4 C0.67 2.68 0.34 1.36 0 0 Z " fill="#D5D4D4" transform="translate(209,41)"/>
<path d="M0 0 C0.33 1.32 0.66 2.64 1 4 C-0.98 4.99 -0.98 4.99 -3 6 C-3 5.34 -3 4.68 -3 4 C-4.32 3.67 -5.64 3.34 -7 3 C-6.01 3 -5.02 3 -4 3 C-4 2.34 -4 1.68 -4 1 C-2 0 -2 0 0 0 Z " fill="#F4F2F3" transform="translate(287,44)"/>
<path d="M0 0 C0 0.99 0 1.98 0 3 C-2.64 3 -5.28 3 -8 3 C-8.33 2.34 -8.66 1.68 -9 1 C-2.25 0 -2.25 0 0 0 Z " fill="#E3E3E3" transform="translate(225,42)"/>
<path d="M0 0 C3.375 -0.1875 3.375 -0.1875 7 0 C7.66 0.99 8.32 1.98 9 3 C8.34 3 7.68 3 7 3 C7 3.66 7 4.32 7 5 C4.36443095 3.68221547 2.27730447 1.85780102 0 0 Z " fill="#2D2B2B" transform="translate(295,50)"/>
<path d="M0 0 C2.3125 -0.25 2.3125 -0.25 5 0 C6.8125 2 6.8125 2 8 4 C6.35 4.33 4.7 4.66 3 5 C3.33 4.01 3.66 3.02 4 2 C2.68 1.34 1.36 0.68 0 0 Z " fill="#C7C5C6" transform="translate(290,48)"/>
<path d="M0 0 C0 0.66 0 1.32 0 2 C-3 4 -3 4 -6.1875 3.625 C-7.115625 3.41875 -8.04375 3.2125 -9 3 C-3.2 0 -3.2 0 0 0 Z " fill="#3F3D3D" transform="translate(540,42)"/>
<path d="M0 0 C0.66 0.33 1.32 0.66 2 1 C1.67 3.31 1.34 5.62 1 8 C-0.32 7.34 -1.64 6.68 -3 6 C-2.67 4.68 -2.34 3.36 -2 2 C-1.34 2 -0.68 2 0 2 C0 1.34 0 0.68 0 0 Z " fill="#2A2828" transform="translate(120,27)"/>
<path d="M0 0 C2.31 0 4.62 0 7 0 C6.01 1.485 6.01 1.485 5 3 C3.35 2.67 1.7 2.34 0 2 C0 1.34 0 0.68 0 0 Z " fill="#3D3C3C" transform="translate(130,30)"/>
</svg>
