<?xml version="1.0" encoding="UTF-8"?>
<svg xmlns="http://www.w3.org/2000/svg" viewBox="0 0 1200 60" preserveAspectRatio="none">
  <!-- Watercolor edge with subtle varied bleeding - gentle natural variations -->
  <path d="M0,30 C15,22 25,38 38,30 C45,20 58,40 75,22 C85,30 92,39 105,22 C125,19 142,41 165,30 C175,38 188,21 198,30 C215,22 228,39 245,30 C265,41 285,20 305,30 C318,38 335,21 348,30 C358,22 372,38 385,22 C395,40 408,19 425,30 C445,22 465,39 485,30 C502,42 515,18 535,22 C548,30 565,21 578,38 C595,22 612,38 628,22 C645,39 662,20 678,30 C695,22 715,39 735,30 C748,19 765,41 785,22 C798,30 815,21 828,38 C845,22 862,38 878,22 C895,40 912,19 928,30 C945,22 965,39 985,30 C1002,41 1015,20 1035,22 C1048,30 1065,21 1078,38 C1095,22 1112,38 1128,22 C1145,39 1162,21 1178,30 C1188,22 1194,37 1200,22 L1200,60 L0,60 Z" 
        fill="#ffffff"/>
</svg>