<?xml version="1.0" standalone="no"?>
<!DOCTYPE svg PUBLIC "-//W3C//DTD SVG 20010904//EN"
 "http://www.w3.org/TR/2001/REC-SVG-20010904/DTD/svg10.dtd">
<svg version="1.0" xmlns="http://www.w3.org/2000/svg"
 width="300.000000pt" height="69.000000pt" viewBox="0 0 300.000000 69.000000"
 preserveAspectRatio="xMidYMid meet">
<metadata>
Created by potrace 1.10, written by Peter Selinger 2001-2011
</metadata>
<g transform="translate(0.000000,69.000000) scale(0.100000,-0.100000)"
fill="#000000" stroke="none">
<path d="M592 560 c-19 -31 -15 -38 28 -50 44 -12 50 -24 20 -40 -11 -6 -18
-15 -15 -21 8 -11 7 -11 -55 2 -27 6 -50 15 -50 20 0 5 -9 9 -20 9 -11 0 -20
-4 -20 -10 0 -5 -6 -10 -14 -10 -8 0 -18 -5 -22 -12 -5 -8 -2 -9 11 -4 11 4
22 2 26 -6 6 -9 11 -9 24 2 10 8 19 10 23 4 9 -12 112 -16 112 -3 0 5 9 18 20
29 29 29 25 47 -9 47 -37 0 -67 26 -47 42 16 13 47 8 80 -14 17 -11 35 -15 52
-11 21 6 25 4 21 -8 -5 -13 1 -15 41 -9 26 3 52 10 58 14 6 5 30 12 52 15 35
5 42 2 52 -17 11 -20 10 -21 -14 -17 -16 3 -33 0 -42 -9 -24 -24 -16 -34 16
-18 36 19 41 19 34 1 -4 -10 5 -14 35 -14 46 -1 52 5 19 17 -15 5 -26 4 -30
-3 -5 -6 -5 3 -2 21 5 25 2 33 -16 43 -25 13 -120 4 -120 -12 0 -6 -13 -8 -32
-3 -18 3 -46 7 -63 7 -16 0 -32 3 -35 7 -27 34 -99 41 -118 11z"/>
<path d="M1097 543 c-4 -3 -7 -11 -7 -17 0 -6 5 -5 12 2 13 13 29 16 27 5 -4
-22 2 -25 14 -8 9 11 19 15 27 10 10 -6 9 -9 -1 -16 -7 -4 -10 -12 -5 -16 4
-4 14 0 21 10 8 12 15 14 20 8 3 -6 17 -8 30 -5 26 6 45 -14 24 -27 -10 -6 -8
-9 9 -9 15 0 21 4 16 12 -5 7 -2 9 7 6 8 -3 22 -9 32 -13 11 -5 17 -2 17 6 0
11 2 11 10 -1 5 -8 12 -11 15 -8 14 13 -8 30 -33 25 -30 -6 -54 1 -46 14 3 5
2 9 -3 10 -4 0 -26 2 -48 4 -22 1 -61 5 -86 9 -25 3 -49 3 -52 -1z"/>
<path d="M1013 520 c-13 -5 -23 -12 -23 -15 0 -4 5 -3 10 0 17 10 48 -5 46
-22 0 -10 8 -19 19 -21 16 -2 17 -1 5 7 -12 8 -7 11 20 12 l35 1 -32 9 c-18 5
-35 15 -39 21 -5 8 -2 9 10 5 10 -4 15 -3 11 3 -7 12 -32 12 -62 0z"/>
<path d="M2694 505 c-4 -8 -16 -15 -29 -15 -33 0 -86 -21 -79 -31 3 -5 19 -2
36 7 25 13 36 14 50 5 24 -15 28 -14 22 4 -4 8 -2 15 4 15 6 0 13 -6 15 -12 3
-8 6 -6 6 5 2 28 31 20 31 -9 0 -14 4 -22 10 -19 5 3 18 2 27 -4 17 -9 17 -10
0 -16 -25 -10 -1 -38 25 -29 12 4 18 1 16 -8 -2 -7 3 -12 10 -10 9 1 12 -20
12 -83 l0 -85 -1380 0 -1380 0 0 89 c0 95 3 100 55 119 30 10 30 10 4 11 -14
1 -36 -7 -47 -18 -20 -16 -22 -29 -22 -114 l0 -95 33 -5 c17 -3 111 -4 207 -2
96 2 707 4 1358 4 l1183 1 -3 98 -3 97 -35 12 c-19 7 -29 12 -22 12 21 1 13
21 -13 33 -15 7 -24 17 -21 25 4 8 -5 18 -20 23 -35 14 -44 13 -50 -5z"/>
<path d="M1692 503 c-12 -2 -20 -8 -17 -12 14 -24 -84 -61 -164 -61 -30 0 -39
4 -35 13 3 10 -5 14 -27 15 -18 0 -36 7 -40 14 -7 11 -12 11 -30 0 -18 -12
-23 -12 -30 0 -7 10 -9 10 -9 1 0 -7 -9 -13 -21 -13 -11 0 -17 -4 -14 -10 3
-5 -3 -10 -14 -10 -23 0 -36 -16 -21 -25 6 -4 20 1 30 10 16 14 25 16 47 7 16
-6 42 -13 58 -15 17 -2 24 -2 18 0 -18 6 -16 20 3 27 10 4 13 2 8 -6 -5 -7 -2
-9 9 -5 8 3 21 0 27 -8 12 -15 126 -9 147 7 7 6 19 8 27 5 8 -3 17 -3 21 1 4
4 11 8 16 8 30 4 31 7 9 14 -23 7 -21 8 12 9 45 1 70 10 62 22 -3 5 4 9 15 9
12 0 21 -3 21 -8 0 -4 21 -7 48 -8 26 0 76 -3 111 -7 40 -4 67 -3 71 3 8 13
128 21 136 9 8 -14 24 -10 18 4 -7 18 -79 19 -166 2 -43 -8 -82 -10 -104 -5
-48 11 -193 20 -222 13z"/>
<path d="M2500 493 c0 -5 -29 -8 -65 -9 -36 0 -71 -6 -80 -14 -13 -11 -18 -10
-33 3 -14 13 -25 14 -47 7 l-30 -9 30 2 c18 1 37 -5 48 -16 10 -10 23 -14 30
-10 7 4 23 6 37 5 22 -1 22 -1 6 6 -19 8 -19 9 3 15 12 3 45 3 72 1 40 -4 49
-2 44 8 -3 7 0 5 8 -4 8 -10 19 -18 26 -18 6 0 3 9 -6 20 -17 20 -43 27 -43
13z"/>
<path d="M1146 475 c-18 -14 -17 -15 25 -15 25 0 50 -5 57 -12 8 -8 15 -8 26
1 8 7 20 10 26 6 5 -3 10 -1 10 6 0 7 -9 9 -22 6 -12 -4 -42 -3 -67 0 -35 5
-41 8 -26 14 13 5 15 8 5 8 -8 0 -24 -6 -34 -14z"/>
<path d="M2152 468 c6 -17 46 -24 98 -17 28 4 35 7 18 7 -41 3 -42 3 -55 14
-9 7 -18 7 -28 -2 -10 -9 -15 -9 -15 -1 0 6 -5 11 -11 11 -6 0 -9 -5 -7 -12z"/>
<path d="M213 452 c-18 -2 -33 -7 -33 -11 0 -4 14 -6 30 -3 18 3 30 0 30 -7 0
-6 -7 -11 -17 -11 -26 0 -4 -15 25 -17 15 0 47 -4 72 -8 25 -4 42 -4 38 0 -4
4 -23 9 -43 11 -32 3 -67 24 -65 39 2 10 -2 10 -37 7z"/>
<path d="M338 433 c-10 -2 -18 -9 -18 -14 0 -12 17 -11 25 1 5 8 11 7 21 -1 8
-6 14 -7 14 -2 0 6 20 8 48 5 26 -2 44 -1 40 3 -8 8 -106 14 -130 8z"/>
</g>
</svg>
